PathFileType	4	(X/Y/Z)	Walk4.trc
DataRate	CameraRate	NumFrames	NumMarkers	Units	OrigDataRate	OrigDataStartFrame	OrigNumFrames
200.000000	200.000000	8	59	mm	200.000000	540	583
Frame#	Times		LFHD		RFHD		CLAV		STRN		LASI		RASI		RACR1		RUA1		RElbow		RFA1		RWRR		RWRU		RCAR		LACR1		LUA1		LElbow		LFA1		LWRR		LWRU		LCAR		RTH3		RTH2		RTB1		RTB2		LTH1		LTH3		LTH2		LLFC		LMFC		LTB1		LTB3		LTB2		LTB4		LMT1		LToe		LMT5		RTB4		RTB3		RMFC		LTH4		RTH4		RMT1		RElbowM		RLFC		LBHD		RToe		RMMAL		RTH1		RCAL		RBack		LLMAL		RPSI		C7		LElbowM		T10		LPSI		LMMAL		RBHD		LCAL
			X1	Y1	Z1	X2	Y2	Z2	X3	Y3	Z3	X4	Y4	Z4	X5	Y5	Z5	X6	Y6	Z6	X7	Y7	Z7	X8	Y8	Z8	X9	Y9	Z9	X10	Y10	Z10	X11	Y11	Z11	X12	Y12	Z12	X13	Y13	Z13	X14	Y14	Z14	X15	Y15	Z15	X16	Y16	Z16	X17	Y17	Z17	X18	Y18	Z18	X19	Y19	Z19	X20	Y20	Z20	X21	Y21	Z21	X22	Y22	Z22	X23	Y23	Z23	X24	Y24	Z24	X25	Y25	Z25	X26	Y26	Z26	X27	Y27	Z27	X28	Y28	Z28	X29	Y29	Z29	X30	Y30	Z30	X31	Y31	Z31	X32	Y32	Z32	X33	Y33	Z33	X34	Y34	Z34	X35	Y35	Z35	X36	Y36	Z36	X37	Y37	Z37	X38	Y38	Z38	X39	Y39	Z39	X40	Y40	Z40	X41	Y41	Z41	X42	Y42	Z42	X43	Y43	Z43	X44	Y44	Z44	X45	Y45	Z45	X46	Y46	Z46	X47	Y47	Z47	X48	Y48	Z48	X49	Y49	Z49	X50	Y50	Z50	X51	Y51	Z51	X52	Y52	Z52	X53	Y53	Z53	X54	Y54	Z54	X55	Y55	Z55	X56	Y56	Z56	X57	Y57	Z57	X58	Y58	Z58	X59	Y59	Z59

540	2.7	1297.9	1669.8	-62.335	1293.6	1676.5	36.662	1298.5	1414.7	4.6506	1367.2	1256.6	8.265	1244.9	993.33	-169.48	1254	1003.5	203.73	1181.9	1501.3	171.23	1161.2	1339.1	295.83	1173	1192.1	349.92	1210.1	1044.2	369.95	1232.7	924.37	304.49	1229.9	932.66	386.13	1263.1	847.46	355.4	1185.5	1475.3	-179.67	1163.5	1299.2	-266.05	1169.4	1135.4	-316.44	1220.7	1005.2	-326.52	1301.5	900.2	-268.19	1260.4	873.05	-323.79	1334	822.82	-306.37	1288.5	642.05	238.65	1305.4	745.76	230.37	1315.7	403.72	165	1250	338.56	214.97	1184.2	761.56	-177.83	1195.9	594.16	-143.32	1246	685.85	-148.03	1180.4	509.63	-135.71	1204	508.36	20.452	1243.6	385.88	-68.81	1210.7	222.92	-25.876	1199.3	296.25	-99.235	1231.1	305.43	-46.044	1262.3	36.785	-11.118	1313.6	26.12	-53.49	1190.3	25.373	-84.388	1270.2	330.89	157.53	1224.8	258.54	149.15	1308.4	531.36	79.922	1187.6	678.61	-159.71	1253.3	720.39	243.17	1226.6	57.995	129.36	1116.9	1116.2	261.22	1295.5	536.43	234.79	1149.6	1588	-76.314	1264.2	54.168	168.68	1131.9	154.21	90.874	1215.9	798.91	245.15	1028.9	152.66	122.09	1038.1	1381.4	115.83	1102.8	76.081	-14.731	995	1039.6	50.806	1105.8	1495	-2.5119	1120.2	1070.2	-220.09	1038.5	1180.7	8.0594	1003.1	1050.5	-34.976	1135.5	86.143	69.428	1159.8	1603.5	73.521	1055.1	51.607	46.799
541	2.705	1303.5	1670	-61.977	1299.2	1676.4	37.032	1304.1	1414.8	4.6637	1372.9	1256.6	8.016	1249.9	993.33	-169.93	1260.5	1003.3	202.92	1187.6	1501.1	171.41	1166.6	1339	295.99	1177.9	1191.9	350.11	1214.1	1043.8	370.3	1236	923.74	305.02	1233.2	932.15	386.64	1265.8	846.66	356.03	1190.9	1475.6	-179.52	1170.2	1299.4	-266.14	1177.9	1135.7	-316.89	1230.6	1006.2	-327	1312.6	902.08	-268.52	1272	874.54	-324.38	1346.1	825.1	-306.63	1297.1	643.41	238.25	1313	747.26	230.16	1328.4	405.12	164.9	1264.5	338.25	215.03	1188	761.47	-177.87	1198.9	593.98	-143.34	1249.6	685.37	-148.05	1182.9	509.45	-135.66	1206.5	508.04	20.543	1245.5	385.34	-68.714	1211.7	222.56	-25.769	1200.7	295.93	-99.145	1232.5	304.94	-45.947	1262.4	36.76	-11.175	1313.7	26.031	-53.621	1190.3	25.386	-84.378	1285	330.95	157.67	1241.7	257.27	149.53	1317.8	532.8	79.498	1191.1	678.46	-159.74	1261.1	721.44	243.02	1249.5	56.995	130.77	1121.3	1116.3	261.49	1305.1	537.64	234.35	1155.3	1588.2	-76.031	1287	54.662	170.15	1152.1	150.05	91.527	1223.1	799.64	245.18	1048.9	145.58	122.42	1043.8	1381.3	115.96	1103	76.241	-14.587	1000.8	1039.7	51.332	1111.4	1495	-2.2631	1129	1069.9	-220.82	1044.2	1180.7	8.3167	1008.6	1050.6	-34.504	1135.9	86.153	69.583	1165.5	1603.4	73.808	1055.3	51.907	46.964
542	2.71	1309.1	1670	-61.618	1304.9	1676.4	37.403	1309.7	1414.8	4.6797	1378.5	1256.6	7.7743	1255	993.31	-170.3	1267.1	1003.1	202.08	1193.3	1501	171.59	1172	1338.9	296.16	1182.8	1191.7	350.31	1218.1	1043.4	370.65	1239.2	923.08	305.55	1236.5	931.6	387.15	1268.5	845.82	356.65	1196.3	1475.7	-179.35	1176.8	1299.5	-266.2	1186.3	1136.1	-317.31	1240.6	1007.2	-327.44	1323.5	903.98	-268.82	1283.5	876.05	-324.92	1358.1	827.39	-306.83	1305.4	644.67	237.83	1320.6	748.66	229.95	1340.9	406.5	164.83	1278.8	337.96	215.09	1191.9	761.36	-177.9	1201.9	593.79	-143.35	1253.2	684.87	-148.05	1185.5	509.25	-135.61	1209	507.71	20.628	1247.3	384.79	-68.611	1212.7	222.18	-25.653	1202.1	295.59	-99.048	1233.9	304.44	-45.841	1262.5	36.73	-11.229	1313.8	25.944	-53.758	1190.3	25.403	-84.363	1299.7	331.03	157.84	1258.6	256.08	149.93	1326.9	534.1	79.056	1194.7	678.28	-159.77	1268.9	722.4	242.87	1272.5	56.206	132.21	1125.8	1116.3	261.76	1314.5	538.75	233.89	1160.9	1588.2	-75.745	1309.9	55.332	171.66	1172.4	146.03	92.169	1230.2	800.29	245.23	1069.2	138.62	122.7	1049.5	1381.1	116.13	1103.3	76.407	-14.44	1006.6	1039.7	51.863	1117	1494.9	-2.0008	1137.8	1069.5	-221.52	1049.9	1180.6	8.6122	1014.1	1050.7	-34.012	1136.2	86.162	69.741	1171.2	1603.2	74.1	1055.5	52.211	47.141
543	2.715	1314.8	1670	-61.258	1310.5	1676.2	37.777	1315.3	1414.8	4.6997	1384.1	1256.6	7.5404	1260.1	993.26	-170.61	1273.7	1002.9	201.21	1199	1500.7	171.77	1177.5	1338.7	296.33	1187.7	1191.5	350.51	1222.2	1042.9	371	1242.5	922.38	306.07	1239.9	931.03	387.66	1271.2	844.95	357.25	1201.7	1475.8	-179.17	1183.4	1299.6	-266.25	1194.8	1136.3	-317.69	1250.5	1008.1	-327.84	1334.5	905.88	-269.1	1295	877.57	-325.4	1370	829.7	-307	1313.7	645.83	237.41	1328	749.94	229.74	1353.3	407.85	164.79	1293	337.7	215.17	1195.7	761.22	-177.95	1204.9	593.57	-143.35	1256.7	684.35	-148.04	1188	509.03	-135.56	1211.5	507.37	20.701	1249.3	384.21	-68.505	1213.8	221.79	-25.531	1203.6	295.24	-98.944	1235.4	303.92	-45.728	1262.6	36.696	-11.276	1313.9	25.858	-53.901	1190.3	25.423	-84.343	1314.4	331.15	158.03	1275.5	254.97	150.36	1335.9	535.26	78.603	1198.3	678.07	-159.8	1276.5	723.26	242.73	1295.5	55.644	133.65	1130.2	1116.3	262.04	1323.6	539.74	233.4	1166.6	1588.2	-75.458	1332.7	56.192	173.2	1192.9	142.17	92.798	1237.3	800.86	245.29	1089.8	131.81	122.94	1055.2	1380.9	116.32	1103.6	76.579	-14.289	1012.4	1039.6	52.397	1122.6	1494.8	-1.7272	1146.6	1069.1	-222.19	1055.6	1180.5	8.9459	1019.6	1050.7	-33.501	1136.6	86.172	69.902	1176.8	1603	74.396	1055.7	52.518	47.33
544	2.72	1320.4	1670	-60.894	1316.2	1676	38.154	1321	1414.7	4.725	1389.8	1256.4	7.3152	1265.1	993.19	-170.85	1280.4	1002.6	200.33	1204.8	1500.5	171.96	1182.9	1338.5	296.51	1192.6	1191.2	350.72	1226.2	1042.4	371.35	1245.8	921.66	306.59	1243.2	930.42	388.17	1273.9	844.05	357.85	1207.1	1475.9	-178.99	1190.1	1299.6	-266.28	1203.2	1136.6	-318.04	1260.3	1009.1	-328.21	1345.4	907.79	-269.33	1306.4	879.09	-325.83	1381.9	832.02	-307.12	1321.8	646.89	236.98	1335.4	751.11	229.52	1365.5	409.19	164.79	1307.1	337.47	215.25	1199.5	761.05	-178	1208	593.33	-143.35	1260.4	683.81	-148.02	1190.7	508.78	-135.49	1214.2	507.02	20.758	1251.2	383.61	-68.395	1214.8	221.39	-25.401	1205	294.88	-98.835	1236.9	303.38	-45.609	1262.6	36.656	-11.318	1314	25.772	-54.047	1190.3	25.446	-84.318	1329	331.31	158.26	1292.5	253.95	150.82	1344.7	536.26	78.144	1201.9	677.85	-159.82	1284.1	724.03	242.59	1318.5	55.326	135.11	1134.7	1116.3	262.32	1332.6	540.62	232.9	1172.2	1588.1	-75.17	1355.5	57.256	174.76	1213.5	138.5	93.413	1244.2	801.34	245.38	1110.5	125.17	123.13	1061	1380.7	116.54	1103.9	76.757	-14.133	1018.2	1039.5	52.934	1128.2	1494.6	-1.4438	1155.3	1068.8	-222.83	1061.3	1180.3	9.3181	1025.1	1050.7	-32.968	1137	86.183	70.065	1182.5	1602.7	74.695	1055.9	52.827	47.531
545	2.725	1326	1669.9	-60.527	1321.9	1675.8	38.534	1326.6	1414.6	4.7566	1395.4	1256.2	7.0992	1270.2	993.09	-171.03	1287	1002.3	199.46	1210.5	1500.1	172.15	1188.4	1338.2	296.7	1197.6	1190.9	350.93	1230.3	1041.9	371.69	1249.1	920.9	307.11	1246.6	929.79	388.66	1276.6	843.12	358.44	1212.5	1475.8	-178.79	1196.7	1299.6	-266.29	1211.5	1136.8	-318.35	1270.1	1010	-328.55	1356.2	909.72	-269.54	1317.8	880.62	-326.2	1393.7	834.35	-307.2	1329.8	647.84	236.55	1342.6	752.16	229.29	1377.6	410.52	164.82	1321.1	337.27	215.35	1203.3	760.85	-178.05	1211.1	593.07	-143.35	1264	683.25	-147.99	1193.3	508.52	-135.42	1216.9	506.66	20.799	1253.2	383	-68.284	1215.9	220.98	-25.266	1206.6	294.51	-98.72	1238.4	302.83	-45.484	1262.7	36.609	-11.354	1314.1	25.685	-54.196	1190.3	25.472	-84.288	1343.5	331.51	158.51	1309.4	253.04	151.3	1353.3	537.09	77.682	1205.6	677.6	-159.85	1291.6	724.7	242.47	1341.4	55.264	136.57	1139.1	1116.2	262.6	1341.4	541.38	232.38	1177.9	1588	-74.88	1378.2	58.536	176.35	1234.2	135.05	94.014	1251.1	801.74	245.48	1131.5	118.73	123.29	1066.7	1380.4	116.79	1104.2	76.943	-13.973	1024	1039.4	53.475	1133.8	1494.4	-1.1521	1164	1068.4	-223.42	1067	1180.1	9.7285	1030.6	1050.7	-32.412	1137.3	86.196	70.231	1188.2	1602.4	74.999	1056.2	53.139	47.745
546	2.73	1331.7	1669.7	-60.156	1327.5	1675.5	38.919	1332.3	1414.4	4.7956	1401.1	1256	6.893	1275.3	992.98	-171.15	1293.7	1001.9	198.61	1216.3	1499.8	172.36	1193.8	1337.9	296.89	1202.5	1190.5	351.14	1234.3	1041.3	372.03	1252.4	920.12	307.62	1250	929.12	389.16	1279.3	842.16	359.03	1218	1475.8	-178.58	1203.4	1299.5	-266.29	1219.9	1137	-318.63	1279.8	1011	-328.85	1367	911.64	-269.72	1329	882.15	-326.52	1405.5	836.69	-307.24	1337.7	648.68	236.13	1349.8	753.09	229.07	1389.6	411.82	164.88	1334.9	337.1	215.45	1207.2	760.61	-178.08	1214.3	592.79	-143.35	1267.6	682.67	-147.96	1196	508.23	-135.34	1219.7	506.29	20.828	1255.2	382.36	-68.17	1217	220.55	-25.127	1208.1	294.12	-98.601	1239.9	302.26	-45.356	1262.8	36.557	-11.384	1314.2	25.596	-54.347	1190.3	25.501	-84.251	1357.9	331.76	158.79	1326.2	252.25	151.81	1361.7	537.76	77.219	1209.3	677.32	-159.88	1298.9	725.26	242.35	1364.3	55.473	138.02	1143.6	1116.1	262.89	1350	542.01	231.85	1183.6	1587.8	-74.59	1400.8	60.045	177.94	1254.9	131.82	94.598	1258	802.05	245.61	1152.6	112.51	123.42	1072.5	1380	117.06	1104.5	77.135	-13.808	1029.8	1039.2	54.023	1139.5	1494.1	-0.8526	1172.7	1068	-223.97	1072.7	1179.8	10.177	1036.1	1050.6	-31.831	1137.7	86.213	70.401	1194	1602.1	75.306	1056.4	53.455	47.972
547	2.735	1337.4	1669.5	-59.779	1333.2	1675.2	39.308	1337.9	1414.1	4.8427	1406.7	1255.6	6.6974	1280.5	992.84	-171.22	1300.4	1001.5	197.79	1222.1	1499.4	172.57	1199.3	1337.6	297.09	1207.4	1190.2	351.35	1238.4	1040.7	372.37	1255.8	919.3	308.14	1253.3	928.42	389.65	1282	841.18	359.61	1223.5	1475.6	-178.36	1210	1299.4	-266.28	1228.2	1137.1	-318.89	1289.5	1011.9	-329.11	1377.7	913.56	-269.86	1340.2	883.67	-326.79	1417.1	839.05	-307.25	1345.5	649.4	235.73	1356.9	753.88	228.84	1401.5	413.11	164.97	1348.7	336.98	215.56	1211.1	760.35	-178.1	1217.5	592.49	-143.35	1271.3	682.07	-147.92	1198.8	507.93	-135.26	1222.5	505.92	20.85	1257.3	381.7	-68.056	1218.2	220.1	-24.983	1209.7	293.71	-98.476	1241.5	301.67	-45.224	1262.8	36.5	-11.407	1314.3	25.506	-54.498	1190.3	25.532	-84.207	1372.3	332.07	159.09	1343	251.58	152.33	1369.9	538.26	76.756	1213	677.03	-159.91	1306.2	725.72	242.25	1387.2	55.964	139.46	1148.1	1115.9	263.16	1358.4	542.5	231.32	1189.3	1587.6	-74.297	1423.3	61.793	179.53	1275.8	128.85	95.165	1264.8	802.27	245.76	1173.8	106.55	123.53	1078.3	1379.7	117.36	1104.9	77.335	-13.636	1035.6	1038.9	54.581	1145.2	1493.8	-0.5456	1181.3	1067.6	-224.49	1078.5	1179.5	10.661	1041.5	1050.4	-31.223	1138.1	86.236	70.573	1199.7	1601.6	75.617	1056.6	53.775	48.209
